<svg xmlns="http://www.w3.org/2000/svg" xmlns:v="http://vecta.io" xmlns:xlink="http://www.w3.org/1999/xlink" viewBox="0 0 107.10829965738085 37.21659931476172" stroke="#000" stroke-linecap="round" stroke-linejoin="round" fill="#fff" fill-rule="evenodd" font-family="Roboto" font-size="14px" text-anchor="middle" width="300" height="300"><defs><style type="text/css"></style></defs><g><title>pytorch-ar21</title><use xlink:href="#b2aO9hZINhwsaoNCPCDOGV.sym" x="0.6082996573808603" y="0.6082996573808603"></use></g><symbol id="b2aO9hZINhwsaoNCPCDOGV.sym" overflow="visible" v:tags="pytorch, logo"><title>pytorch-ar21</title><g id="juhnophz289" class="Group.cls" transform="translate(0 0)" v:abox="{&quot;x&quot;:0,&quot;y&quot;:0,&quot;width&quot;:105.21983337402344,&quot;height&quot;:35.1904525756836}" v:size="107.10829965738085,37.21659931476172,0.6082996573808603,0.6082996573808603"><g class="Prim.cls"><g id="juhnopht283" transform="translate(0 0)" class=""><path d="M 24.9709930419922 10.3411102294922 L 22.4161224365234 12.8959732055664 C 26.6742401123047 17.1540756225586 26.6742401123047 24.0887069702148 22.4161224365234 28.346809387207 C 18.1580352783203 32.6049118041992 11.2234039306641 32.6049118041992 6.9653015136719 28.346809387207 C 2.7071990966797 24.0887069702148 2.7071990966797 17.1540756225586 6.9653015136719 12.8959732055664 L 13.7782745361328 6.0830078125 L 14.6298828125 5.1097259521484 L 14.6298828125 0 L 4.2887725830078 10.3411102294922 C 1.5442199707031 13.057991027832 0 16.759521484375 0 20.6213912963867 C 0 24.4832611083984 1.5442199707031 28.1847915649414 4.2887725830078 30.9016723632813 C 7.0056610107422 33.6462249755859 10.7071838378906 35.1904525756836 14.5690612792969 35.1904525756836 C 18.4309234619141 35.1904525756836 22.1324615478516 33.6462249755859 24.8493499755859 30.9016723632813 C 30.6890106201172 25.1836471557617 30.6890106201172 15.9374771118164 24.9709930419922 10.3411102294922 Z" stroke="none" fill="#ee4c2c" stroke-width="1.2165993147617207"></path></g><g id="juhnophu284" transform="translate(17.914718627929688 5.718025207519531)" class=""><path d="M 0 1.9465637207031 C 0 0.8681716918945 0.8681640625 0 1.9465637207031 0 C 3.0249328613281 0 3.8930969238281 0.8681716918945 3.8930969238281 1.9465637207031 C 3.8930969238281 3.0249557495117 3.0249328613281 3.8931274414063 1.9465637207031 3.8931274414063 C 0.8681640625 3.8931274414063 0 3.0249557495117 0 1.9465637207031 Z" stroke="none" fill="#ee4c2c" stroke-width="1.2165993147617207"></path></g><g id="juhnophu285" transform="translate(37.12583923339844 8.791099548339844)" class=""><path d="M 3.4929809570313 10.8320007324219 L 1.4929809570313 10.8320007324219 L 1.4929809570313 15.9759979248047 L 0 15.9759979248047 L 0 1.3740005493164 L 3.6499938964844 1.3740005493164 C 7.52197265625 1.3740005493164 9.3469848632813 3.2539978027344 9.3469848632813 5.9739990234375 C 9.3469848632813 9.181999206543 7.0789794921875 10.786003112793 3.4839782714844 10.8410034179688 Z M 3.5929870605469 2.7570037841797 L 1.4449768066406 2.7570037841797 L 1.4449768066406 9.4499969482422 L 3.5469970703125 9.3950042724609 C 6.31298828125 9.3399963378906 7.8069763183594 8.2330017089844 7.8069763183594 5.9649963378906 C 7.8069763183594 3.9189987182617 6.3689880371094 2.7570037841797 3.6029968261719 2.7570037841797 Z M 16.10498046875 15.9199981689453 L 15.219970703125 18.2429962158203 C 14.2239990234375 20.8430023193359 13.219970703125 21.6170043945313 11.7349853515625 21.6170043945313 C 10.9049682617188 21.6170043945313 10.2969970703125 21.3970031738281 9.6329956054688 21.1190032958984 L 10.0749816894531 19.7919998168945 C 10.572998046875 20.0690002441406 11.125 20.234001159668 11.7349853515625 20.234001159668 C 12.5650024414063 20.234001159668 13.1729736328125 19.7919998168945 13.9469909667969 17.734001159668 L 14.6669921875 15.85400390625 L 10.5189819335938 5.2900009155273 L 12.0689697265625 5.2900009155273 L 15.4429931640625 14.1399993896484 L 18.7630004882813 5.2900009155273 L 20.2559814453125 5.2900009155273 Z M 25.22998046875 2.8119964599609 L 25.22998046875 16.0319976806641 L 23.7369995117188 16.0319976806641 L 23.7369995117188 2.8119964599609 L 18.5929870605469 2.8119964599609 L 18.5929870605469 1.3740005493164 L 30.3729858398438 1.3740005493164 L 30.3729858398438 2.7570037841797 L 25.22900390625 2.7570037841797 Z M 34.5769958496094 16.306999206543 C 31.5899963378906 16.306999206543 29.3769836425781 14.0950012207031 29.3769836425781 10.6650009155273 C 29.3769836425781 7.2350006103516 31.6449890136719 4.9680023193359 34.677001953125 4.9680023193359 C 37.6640014648438 4.9680023193359 39.8209838867188 7.1800003051758 39.8209838867188 10.6100006103516 C 39.8209838867188 14.0400009155273 37.552978515625 16.306999206543 34.5659790039063 16.306999206543 Z M 34.6319885253906 6.306999206543 C 32.3639831542969 6.306999206543 30.8719787597656 8.1320037841797 30.8719787597656 10.6210021972656 C 30.8719787597656 13.2210006713867 32.4219970703125 14.9909973144531 34.68798828125 14.9909973144531 C 36.9539794921875 14.9909973144531 38.447998046875 13.1660003662109 38.447998046875 10.677001953125 C 38.447998046875 8.0770034790039 36.8979797363281 6.306999206543 34.6319885253906 6.306999206543 Z M 43.5379943847656 16.031005859375 L 42.0999755859375 16.031005859375 L 42.0999755859375 5.3010025024414 L 43.5379943847656 5.0240020751953 L 43.5379943847656 7.2919998168945 C 44.2579956054688 5.9089965820313 45.3079833984375 5.0240020751953 46.6909790039063 5.0240020751953 C 47.3495483398438 5.0294418334961 47.99609375 5.2007141113281 48.5709838867188 5.5220031738281 L 48.1849975585938 6.9039993286133 C 47.7429809570313 6.6269989013672 47.1349792480469 6.4620056152344 46.5249938964844 6.4620056152344 C 45.4189758300781 6.4620056152344 44.3679809570313 7.2919998168945 43.4829711914063 9.2279968261719 L 43.4829711914063 16.031005859375 Z M 54.2679748535156 16.306999206543 C 51.0599975585938 16.306999206543 49.0130004882813 13.984001159668 49.0130004882813 10.6650009155273 C 49.0130004882813 7.2910003662109 51.2249755859375 4.9680023193359 54.2679748535156 4.9680023193359 C 55.594970703125 4.9680023193359 56.7019958496094 5.3000030517578 57.6419677734375 5.9080047607422 L 57.2549743652344 7.2350006103516 C 56.4249877929688 6.681999206543 55.4299926757813 6.3499984741211 54.2679748535156 6.3499984741211 C 51.9449768066406 6.3499984741211 50.5079956054688 8.0650024414063 50.5079956054688 10.6100006103516 C 50.5079956054688 13.2099990844727 52.0579833984375 14.9239959716797 54.323974609375 14.9239959716797 C 55.383544921875 14.9191131591797 56.4197692871094 14.6121063232422 57.3109741210938 14.0390014648438 L 57.5879821777344 15.3659973144531 C 56.6479797363281 15.9739990234375 55.4859924316406 16.3059997558594 54.2679748535156 16.3059997558594 Z M 66.6019897460938 16.031005859375 L 66.6019897460938 9.1170043945313 C 66.6019897460938 7.2369995117188 65.8280029296875 6.4169998168945 64.333984375 6.4169998168945 C 63.1170043945313 6.4169998168945 61.8999938964844 7.0250015258789 61.0139770507813 7.9670028686523 L 61.0139770507813 16.0970001220703 L 59.5759887695313 16.0970001220703 L 59.5759887695313 0.2770004272461 L 61.0139770507813 0 L 61.0139770507813 6.7480010986328 C 62.1199951171875 5.6419982910156 63.5579833984375 5.0330047607422 64.719970703125 5.0330047607422 C 66.8219909667969 5.0330047607422 68.093994140625 6.3600006103516 68.093994140625 8.6829986572266 L 68.093994140625 16.0390014648438 Z" stroke="none" fill="#252525"></path></g></g></g></symbol></svg>